<svg xmlns="http://www.w3.org/2000/svg" viewBox="0 0 40 40" width="50px" height="50px" baseProfile="basic">
  <polygon fill="#f78f8f" points="36,6 36,4 34,4 34,2 30,2 30,4 26,4 26,6 22,6 22,11 18,11 18,6 14,6 14,4 10,4 10,2 6,2 6,4 4,4 4,6 2,6 2,12 2,26 6,26 6,30 10,30 10,34 15,34 15,38 20,38 25,38 25,34 30,34 30,30 34,30 34,26 38,26 38,12 38,6" />
  <path fill="#c74343" d="M33,3v1v1h1h1v1v1h1h1v5v13h-3h-1v1v3h-3h-1v1v3h-4h-1v1v3h-4h-4v-3v-1h-1h-4v-3v-1h-1H7v-3v-1H6H3 V12V7h1h1V6V5h1h1V4V3h2v1v1h1h3v1v1h1h3v4v1h1h4h1v-1V7h3h1V6V5h3h1V4V3H33 M34,2h-4v2h-4v2h-4v5h-4V6h-4V4h-4V2H6v2H4v2H2v6v14h4 v4h4v4h5v4h5h5v-4h5v-4h4v-4h4V12V6h-2V4h-2V2L34,2z" />
</svg>